<svg width="142" height="35" viewBox="0 0 142 35" fill="none" xmlns="http://www.w3.org/2000/svg">
<path d="M1.23275 34.21C0.672747 34.21 0.392747 33.93 0.392747 33.37V2.038C0.392747 1.478 0.672747 1.198 1.23275 1.198H7.28075C7.84075 1.198 8.12075 1.478 8.12075 2.038V27.994H13.7067V17.662H10.2627C9.67475 17.662 9.38075 17.368 9.38075 16.78V12.286C9.38075 11.726 9.67475 11.446 10.2627 11.446H13.7067V2.038C13.7067 1.478 14.0007 1.198 14.5887 1.198H20.5527C21.1407 1.198 21.4347 1.478 21.4347 2.038V33.37C21.4347 33.93 21.1407 34.21 20.5527 34.21H1.23275ZM25.2567 34.84C24.6687 34.84 24.3747 34.56 24.3747 34V1.45C24.3747 0.861998 24.6687 0.567997 25.2567 0.567997H31.2627C31.8507 0.567997 32.1447 0.861998 32.1447 1.45V13.042H34.3287C34.8887 13.042 35.1687 13.336 35.1687 13.924V19.51C35.1687 20.07 34.8887 20.35 34.3287 20.35H32.1447V34C32.1447 34.56 31.8507 34.84 31.2627 34.84H25.2567ZM37.3029 34C36.7149 34 36.4209 33.706 36.4209 33.118V28.666C36.4209 28.078 36.7149 27.784 37.3029 27.784H48.9369V24.046H38.4789C37.9189 24.046 37.6389 23.766 37.6389 23.206V10.942C37.6389 10.382 37.9189 10.102 38.4789 10.102H60.1929V7.036H38.3949C37.8349 7.036 37.5549 6.742 37.5549 6.154V2.29C37.5549 1.73 37.8349 1.45 38.3949 1.45H67.2909C67.8789 1.45 68.1729 1.73 68.1729 2.29V14.218C68.1729 14.778 67.8789 15.058 67.2909 15.058H45.5769V18.25H67.6689C68.2569 18.25 68.5509 18.544 68.5509 19.132V23.206C68.5509 23.766 68.2569 24.046 67.6689 24.046H57.0849V27.784H68.6769C69.2649 27.784 69.5589 28.078 69.5589 28.666V33.118C69.5589 33.706 69.2649 34 68.6769 34H37.3029ZM97.313 34.84C96.725 34.84 96.431 34.56 96.431 34V1.45C96.431 0.861998 96.725 0.567997 97.313 0.567997H103.319C103.907 0.567997 104.201 0.861998 104.201 1.45V13.042H106.385C106.945 13.042 107.225 13.336 107.225 13.924V19.51C107.225 20.07 106.945 20.35 106.385 20.35H104.201V34C104.201 34.56 103.907 34.84 103.319 34.84H97.313ZM73.709 33.58C73.429 33.636 73.219 33.58 73.079 33.412C72.939 33.244 72.869 33.02 72.869 32.74V27.28C72.869 27 72.939 26.818 73.079 26.734C73.247 26.622 73.457 26.524 73.709 26.44C75.585 25.824 77.237 24.942 78.665 23.794C80.093 22.646 81.283 21.274 82.235 19.678C83.187 18.082 83.901 16.29 84.377 14.302C84.881 12.314 85.133 10.158 85.133 7.834H73.289C72.729 7.834 72.449 7.554 72.449 6.994V2.248C72.449 1.688 72.729 1.408 73.289 1.408H92.609C93.197 1.408 93.491 1.702 93.491 2.29V6.91C93.491 10.606 93.043 13.952 92.147 16.948C91.279 19.944 89.991 22.576 88.283 24.844C86.603 27.112 84.531 28.988 82.067 30.472C79.631 31.928 76.845 32.964 73.709 33.58ZM134.139 34.84C133.551 34.84 133.257 34.56 133.257 34V1.45C133.257 0.861998 133.551 0.567997 134.139 0.567997H140.145C140.733 0.567997 141.027 0.861998 141.027 1.45V34C141.027 34.56 140.733 34.84 140.145 34.84H134.139ZM109.737 33.58C109.429 33.636 109.205 33.58 109.065 33.412C108.953 33.244 108.897 33.02 108.897 32.74V27.28C108.897 27 108.967 26.818 109.107 26.734C109.275 26.622 109.485 26.524 109.737 26.44C113.489 25.236 116.345 23.122 118.305 20.098C120.293 17.074 121.287 12.986 121.287 7.834H109.317C108.757 7.834 108.477 7.554 108.477 6.994V2.248C108.477 1.688 108.757 1.408 109.317 1.408H128.847C129.435 1.408 129.729 1.702 129.729 2.29V6.91C129.729 10.606 129.267 13.952 128.343 16.948C127.447 19.944 126.145 22.576 124.437 24.844C122.729 27.112 120.629 28.988 118.137 30.472C115.673 31.928 112.873 32.964 109.737 33.58Z" fill="url(#paint0_linear_446_2558)"/>
<defs>
<linearGradient id="paint0_linear_446_2558" x1="-2" y1="23" x2="144" y2="23" gradientUnits="userSpaceOnUse">
<stop stop-color="#D1FD51"/>
<stop offset="1" stop-color="#BAFD4F"/>
</linearGradient>
</defs>
</svg>
